<?xml version="1.0" encoding="utf-8"?><!-- Uploaded to: SVG Repo, www.svgrepo.com, Generator: SVG Repo Mixer Tools -->
<svg fill="#000000" width="800px" height="800px" viewBox="0 0 24 24" id="add-file-8" data-name="Flat Color" xmlns="http://www.w3.org/2000/svg" class="icon flat-color"><path id="primary" d="M4.29,6.29l4-4A1,1,0,0,1,9,2h9a2,2,0,0,1,2,2V20a2,2,0,0,1-2,2H6a2,2,0,0,1-2-2V7A1,1,0,0,1,4.29,6.29Z" style="fill: rgb(0, 0, 0);"></path><path id="secondary" d="M12,16a1,1,0,0,0,1-1V13h2a1,1,0,0,0,0-2H13V9a1,1,0,0,0-2,0v2H9a1,1,0,0,0,0,2h2v2A1,1,0,0,0,12,16Z" style="fill: rgb(44, 169, 188);"></path></svg>